<svg width="26" height="25" viewBox="0 0 26 25" fill="none" xmlns="http://www.w3.org/2000/svg">
<path d="M13 0C20.1797 0 26 5.59644 26 12.5C26 19.4036 20.1797 25 13 25C5.8203 25 0 19.4036 0 12.5C0 5.59644 5.8203 0 13 0ZM13 3C12.7233 3 12.4574 3.1236 12.2617 3.34375C12.0661 3.56387 11.9561 3.8626 11.9561 4.17383V10.8262H6.04395C5.7672 10.8262 5.50135 10.9498 5.30566 11.1699C5.10997 11.3901 5 11.6887 5 12C5 12.3113 5.10997 12.6099 5.30566 12.8301C5.50135 13.0502 5.7672 13.1738 6.04395 13.1738H11.9561V19.8262C11.9561 20.1374 12.0661 20.4361 12.2617 20.6562C12.4574 20.8764 12.7233 21 13 21C13.2767 21 13.5426 20.8764 13.7383 20.6562C13.9339 20.4361 14.0439 20.1374 14.0439 19.8262V13.1738H19.9561C20.2328 13.1738 20.4986 13.0502 20.6943 12.8301C20.89 12.6099 21 12.3113 21 12C21 11.6887 20.89 11.3901 20.6943 11.1699C20.4986 10.9498 20.2328 10.8262 19.9561 10.8262H14.0439V4.17383C14.0439 3.8626 13.9339 3.56387 13.7383 3.34375C13.5426 3.1236 13.2767 3 13 3Z" fill="#AE77FF"/>
</svg>
